<svg width="45" height="45" viewBox="0 0 45 45" fill="none" xmlns="http://www.w3.org/2000/svg">
<circle cx="22.5" cy="22.5" r="22.5" fill="url(#paint0_linear_4730_3415)"/>
<path d="M23 12.6562C24.1205 12.6563 25.1952 13.1057 25.9875 13.9056C26.7799 14.7056 27.225 15.7906 27.225 16.9219C27.225 18.0532 26.7799 19.1382 25.9875 19.9381C25.1952 20.7381 24.1205 21.1875 23 21.1875C21.8795 21.1875 20.8048 20.7381 20.0125 19.9381C19.2201 19.1382 18.775 18.0532 18.775 16.9219C18.775 15.7906 19.2201 14.7056 20.0125 13.9056C20.8048 13.1057 21.8795 12.6563 23 12.6562ZM13.9 15.6094C14.2841 15.6094 14.6645 15.6858 15.0193 15.8342C15.3742 15.9826 15.6967 16.2001 15.9683 16.4743C16.2399 16.7485 16.4554 17.0741 16.6023 17.4324C16.7493 17.7907 16.825 18.1747 16.825 18.5625C16.825 18.9503 16.7493 19.3343 16.6023 19.6926C16.4554 20.0509 16.2399 20.3765 15.9683 20.6507C15.6967 20.9249 15.3742 21.1424 15.0193 21.2908C14.6645 21.4392 14.2841 21.5156 13.9 21.5156C13.5159 21.5156 13.1355 21.4392 12.7807 21.2908C12.4258 21.1424 12.1033 20.9249 11.8317 20.6507C11.5601 20.3765 11.3446 20.0509 11.1977 19.6926C11.0507 19.3343 10.975 18.9503 10.975 18.5625C10.975 18.1747 11.0507 17.7907 11.1977 17.4324C11.3446 17.0741 11.5601 16.7485 11.8317 16.4743C12.1033 16.2001 12.4258 15.9826 12.7807 15.8342C13.1355 15.6858 13.5159 15.6094 13.9 15.6094ZM10 29.0625C10 26.1627 12.3278 23.8125 15.2 23.8125C15.72 23.8125 16.2237 23.8904 16.6991 24.034C15.3625 25.5434 14.55 27.5367 14.55 29.7188V30.375C14.55 30.8426 14.6475 31.2855 14.8222 31.6875H11.3C10.5809 31.6875 10 31.101 10 30.375V29.0625ZM31.1778 31.6875C31.3525 31.2855 31.45 30.8426 31.45 30.375V29.7188C31.45 27.5367 30.6375 25.5434 29.3009 24.034C29.7762 23.8904 30.28 23.8125 30.8 23.8125C33.6722 23.8125 36 26.1627 36 29.0625V30.375C36 31.101 35.4191 31.6875 34.7 31.6875H31.1778ZM29.175 18.5625C29.175 17.7793 29.4832 17.0281 30.0317 16.4743C30.5803 15.9205 31.3242 15.6094 32.1 15.6094C32.8758 15.6094 33.6197 15.9205 34.1683 16.4743C34.7168 17.0281 35.025 17.7793 35.025 18.5625C35.025 19.3457 34.7168 20.0969 34.1683 20.6507C33.6197 21.2045 32.8758 21.5156 32.1 21.5156C31.3242 21.5156 30.5803 21.2045 30.0317 20.6507C29.4832 20.0969 29.175 19.3457 29.175 18.5625ZM16.5 29.7188C16.5 26.093 19.4087 23.1562 23 23.1562C26.5912 23.1562 29.5 26.093 29.5 29.7188V30.375C29.5 31.101 28.9191 31.6875 28.2 31.6875H17.8C17.0809 31.6875 16.5 31.101 16.5 30.375V29.7188Z" fill="white"/>
<defs>
<linearGradient id="paint0_linear_4730_3415" x1="22.5" y1="-6.70552e-07" x2="-1.00583e-06" y2="45" gradientUnits="userSpaceOnUse">
<stop stop-color="#05B1F5"/>
<stop offset="1" stop-color="#166DF6"/>
</linearGradient>
</defs>
</svg>
