<svg width="45" height="45" viewBox="0 0 45 45" fill="none" xmlns="http://www.w3.org/2000/svg">
<circle cx="22.5" cy="22.5" r="22.5" fill="url(#paint0_linear_4734_3086)"/>
<path d="M29.5003 12.25C30.6496 12.25 31.7518 12.7065 32.5645 13.5192C33.3771 14.3319 33.8337 15.4341 33.8337 16.5833V25.25C33.8337 26.3993 33.3771 27.5015 32.5645 28.3141C31.7518 29.1268 30.6496 29.5833 29.5003 29.5833H24.3827L19.2238 32.6784C19.0685 32.7717 18.8922 32.8244 18.7112 32.8319C18.5301 32.8394 18.3501 32.8014 18.1876 32.7213C18.025 32.6412 17.8852 32.5216 17.7808 32.3735C17.6764 32.2254 17.6109 32.0535 17.5902 31.8735L17.5837 31.75V29.5833H16.5003C15.3886 29.5833 14.3193 29.156 13.5138 28.3898C12.7082 27.6236 12.228 26.577 12.1724 25.4667L12.167 25.25V16.5833C12.167 15.4341 12.6235 14.3319 13.4362 13.5192C14.2489 12.7065 15.3511 12.25 16.5003 12.25H29.5003ZM25.167 22H18.667C18.3797 22 18.1041 22.1141 17.901 22.3173C17.6978 22.5205 17.5837 22.796 17.5837 23.0833C17.5837 23.3707 17.6978 23.6462 17.901 23.8494C18.1041 24.0525 18.3797 24.1667 18.667 24.1667H25.167C25.4543 24.1667 25.7299 24.0525 25.933 23.8494C26.1362 23.6462 26.2503 23.3707 26.2503 23.0833C26.2503 22.796 26.1362 22.5205 25.933 22.3173C25.7299 22.1141 25.4543 22 25.167 22ZM27.3337 17.6667H18.667C18.3797 17.6667 18.1041 17.7808 17.901 17.984C17.6978 18.1871 17.5837 18.4627 17.5837 18.75C17.5837 19.0373 17.6978 19.3129 17.901 19.516C18.1041 19.7192 18.3797 19.8333 18.667 19.8333H27.3337C27.621 19.8333 27.8965 19.7192 28.0997 19.516C28.3029 19.3129 28.417 19.0373 28.417 18.75C28.417 18.4627 28.3029 18.1871 28.0997 17.984C27.8965 17.7808 27.621 17.6667 27.3337 17.6667Z" fill="white"/>
<defs>
<linearGradient id="paint0_linear_4734_3086" x1="22.5" y1="-6.70552e-07" x2="-1.00583e-06" y2="45" gradientUnits="userSpaceOnUse">
<stop stop-color="#05B1F5"/>
<stop offset="1" stop-color="#166DF6"/>
</linearGradient>
</defs>
</svg>
