<svg width="45" height="45" viewBox="0 0 45 45" fill="none" xmlns="http://www.w3.org/2000/svg">
<circle cx="22.5" cy="22.5" r="22.5" fill="url(#paint0_linear_4734_3116)"/>
<path d="M23 11.0859L13.25 15.4193V21.9193C13.25 27.9318 17.41 33.5543 23 34.9193C28.59 33.5543 32.75 27.9318 32.75 21.9193V15.4193L23 11.0859ZM23 15.4193C23.862 15.4193 24.6886 15.7617 25.2981 16.3712C25.9076 16.9807 26.25 17.8073 26.25 18.6693C26.25 19.5312 25.9076 20.3579 25.2981 20.9674C24.6886 21.5769 23.862 21.9193 23 21.9193C22.138 21.9193 21.3114 21.5769 20.7019 20.9674C20.0924 20.3579 19.75 19.5312 19.75 18.6693C19.75 17.8073 20.0924 16.9807 20.7019 16.3712C21.3114 15.7617 22.138 15.4193 23 15.4193ZM28.5575 28.4193C27.2443 30.4279 25.2831 31.9265 23 32.6659C20.7169 31.9265 18.7557 30.4279 17.4425 28.4193C17.0742 27.8776 16.76 27.3359 16.5 26.7618C16.5 24.9743 19.4358 23.5118 23 23.5118C26.5642 23.5118 29.5 24.9418 29.5 26.7618C29.24 27.3359 28.9258 27.8776 28.5575 28.4193Z" fill="white"/>
<defs>
<linearGradient id="paint0_linear_4734_3116" x1="22.5" y1="-6.70552e-07" x2="-1.00583e-06" y2="45" gradientUnits="userSpaceOnUse">
<stop stop-color="#05B1F5"/>
<stop offset="1" stop-color="#166DF6"/>
</linearGradient>
</defs>
</svg>
