<svg width="45" height="45" viewBox="0 0 45 45" fill="none" xmlns="http://www.w3.org/2000/svg">
<circle cx="22.5" cy="22.5" r="22.5" fill="url(#paint0_linear_4734_3125)"/>
<path d="M11.8441 29.6478L21.8714 34.001C23.0315 34.5045 23.9643 32.8394 23.0671 31.8658L20.2569 28.813C18.8419 27.2754 18.3795 24.9254 19.085 22.8529L23.3516 10.3419C23.816 8.97888 22.239 7.93145 21.4149 9.05274L10.5181 23.8937C9.10314 25.8207 9.78098 28.7504 11.8461 29.6456L11.8441 29.6478Z" fill="white"/>
<path d="M31.1269 18.6436L24.155 17.7878C23.3484 17.6889 23.0133 18.9125 23.7255 19.3568L25.9569 20.7505C27.0805 21.4526 27.7274 22.8451 27.597 24.2825L26.8049 32.9611C26.7189 33.9065 27.8703 34.2695 28.2193 33.4087L32.8329 22.017C33.432 20.5378 32.5617 18.8208 31.126 18.6454L31.1269 18.6436Z" fill="#9FD0FB"/>
<defs>
<linearGradient id="paint0_linear_4734_3125" x1="22.5" y1="-6.70552e-07" x2="-1.00583e-06" y2="45" gradientUnits="userSpaceOnUse">
<stop stop-color="#05B1F5"/>
<stop offset="1" stop-color="#166DF6"/>
</linearGradient>
</defs>
</svg>
