<svg width="45" height="45" viewBox="0 0 45 45" fill="none" xmlns="http://www.w3.org/2000/svg">
<circle cx="22.5" cy="22.5" r="22.5" fill="url(#paint0_linear_4734_3106)"/>
<path d="M30.375 31.375H14.625V19H30.375M27 11.125V13.375H18V11.125H15.75V13.375H14.625C13.3763 13.375 12.375 14.3763 12.375 15.625V31.375C12.375 31.9717 12.6121 32.544 13.034 32.966C13.456 33.3879 14.0283 33.625 14.625 33.625H30.375C30.9717 33.625 31.544 33.3879 31.966 32.966C32.3879 32.544 32.625 31.9717 32.625 31.375V15.625C32.625 15.0283 32.3879 14.456 31.966 14.034C31.544 13.6121 30.9717 13.375 30.375 13.375H29.25V11.125M28.125 23.5H22.5V29.125H28.125V23.5Z" fill="white"/>
<defs>
<linearGradient id="paint0_linear_4734_3106" x1="22.5" y1="-6.70552e-07" x2="-1.00583e-06" y2="45" gradientUnits="userSpaceOnUse">
<stop stop-color="#05B1F5"/>
<stop offset="1" stop-color="#166DF6"/>
</linearGradient>
</defs>
</svg>
