<svg width="45" height="45" viewBox="0 0 45 45" fill="none" xmlns="http://www.w3.org/2000/svg">
<circle cx="22.5" cy="22.5" r="22.5" fill="url(#paint0_linear_4734_3095)"/>
<path d="M22.0004 11.1641C19.9892 11.1641 18.0603 11.963 16.6382 13.3852C15.216 14.8073 14.4171 16.7362 14.4171 18.7474V22.5694C14.4172 22.7375 14.3783 22.9032 14.3033 23.0536L12.4432 26.7727C12.3524 26.9544 12.3095 27.1563 12.3186 27.3593C12.3277 27.5622 12.3886 27.7595 12.4954 27.9323C12.6022 28.1051 12.7514 28.2477 12.9288 28.3466C13.1063 28.4455 13.3061 28.4974 13.5092 28.4974H30.4916C30.6947 28.4974 30.8945 28.4455 31.0719 28.3466C31.2494 28.2477 31.3986 28.1051 31.5054 27.9323C31.6122 27.7595 31.6731 27.5622 31.6822 27.3593C31.6913 27.1563 31.6484 26.9544 31.5576 26.7727L29.6986 23.0536C29.6232 22.9033 29.5839 22.7375 29.5837 22.5694V18.7474C29.5837 16.7362 28.7848 14.8073 27.3626 13.3852C25.9405 11.963 24.0116 11.1641 22.0004 11.1641ZM22.0004 31.7474C21.328 31.7477 20.6721 31.5396 20.123 31.1515C19.5739 30.7635 19.1587 30.2146 18.9346 29.5807H25.0662C24.8421 30.2146 24.4269 30.7635 23.8778 31.1515C23.3287 31.5396 22.6728 31.7477 22.0004 31.7474Z" fill="white"/>
<defs>
<linearGradient id="paint0_linear_4734_3095" x1="22.5" y1="-6.70552e-07" x2="-1.00583e-06" y2="45" gradientUnits="userSpaceOnUse">
<stop stop-color="#05B1F5"/>
<stop offset="1" stop-color="#166DF6"/>
</linearGradient>
</defs>
</svg>
