<svg width="216" height="60" viewBox="0 0 216 60" fill="none" xmlns="http://www.w3.org/2000/svg">
<path d="M0 30C0 13.4315 13.4315 0 30 0H186C202.569 0 216 13.4315 216 30C216 46.5685 202.569 60 186 60H30C13.4315 60 0 46.5685 0 30Z" fill="#25416E"/>
<path d="M52.855 27.7284C52.8118 22.9229 56.7908 20.585 56.9728 20.4762C54.7193 17.1915 51.2264 16.7427 49.999 16.7069C47.0654 16.3983 44.2198 18.4619 42.7254 18.4619C41.2012 18.4619 38.9 16.7368 36.4198 16.7875C33.2282 16.8367 30.2424 18.684 28.6049 21.5527C25.2254 27.4019 27.7458 35.9975 30.9837 40.7255C32.6033 43.0425 34.4959 45.6264 36.9731 45.5355C39.3966 45.4371 40.3019 43.9923 43.2266 43.9923C46.1243 43.9923 46.9744 45.5355 49.5009 45.4773C52.1019 45.4371 53.7394 43.1514 55.3024 40.815C57.1741 38.1625 57.9258 35.5473 57.9556 35.4131C57.8959 35.3922 52.9057 33.4867 52.855 27.7284ZM48.0825 13.5967C49.386 11.967 50.2779 9.74992 50.0303 7.5C48.1437 7.5835 45.7843 8.80463 44.4256 10.3985C43.2236 11.803 42.1498 14.1051 42.4272 16.2701C44.5464 16.4281 46.7224 15.201 48.0825 13.5967Z" fill="white"/>
<path d="M87.9551 45.1985H84.5681L82.7128 39.3702H76.264L74.4967 45.1985H71.1992L77.5899 25.3562H81.5361L87.9551 45.1985ZM82.1535 36.9249L80.4757 31.7437C80.2982 31.2144 79.9642 29.9679 79.475 28.0057H79.4153C79.2185 28.8496 78.9038 30.0961 78.4728 31.7437L76.8233 36.9249H82.1535ZM104.357 37.8687C104.357 40.302 103.697 42.2254 102.374 43.6374C101.19 44.8943 99.7177 45.5221 97.9624 45.5221C96.0668 45.5221 94.7037 44.8466 93.8759 43.4928V51H90.6963V35.5935C90.6963 34.0652 90.656 32.4981 90.5784 30.8908H93.3748L93.5523 33.1586H93.612C94.6723 31.45 96.2816 30.5956 98.4411 30.5956C100.129 30.5956 101.539 31.2621 102.666 32.5965C103.792 33.934 104.357 35.6904 104.357 37.8687ZM101.118 37.985C101.118 36.5924 100.805 35.4444 100.176 34.5393C99.4881 33.5985 98.5649 33.1273 97.4076 33.1273C96.6231 33.1273 95.9102 33.3898 95.2734 33.9071C94.635 34.429 94.2175 35.1104 94.0221 35.9543C93.9349 36.2699 93.8853 36.5947 93.8744 36.9219V39.309C93.8744 40.3483 94.1936 41.2265 94.8319 41.9451C95.4702 42.6608 96.2995 43.0201 97.3196 43.0201C98.5172 43.0201 99.4493 42.5564 100.116 41.6365C100.784 40.7136 101.118 39.4969 101.118 37.985ZM120.818 37.8687C120.818 40.302 120.157 42.2254 118.834 43.6374C117.649 44.8943 116.178 45.5221 114.421 45.5221C112.526 45.5221 111.163 44.8466 110.335 43.4928V51H107.155V35.5935C107.155 34.0652 107.115 32.4981 107.038 30.8908H109.834L110.011 33.1586H110.071C111.13 31.45 112.739 30.5956 114.9 30.5956C116.587 30.5956 117.996 31.2621 119.127 32.5965C120.251 33.934 120.818 35.6904 120.818 37.8687ZM117.577 37.985C117.577 36.5924 117.263 35.4444 116.633 34.5393C115.946 33.5985 115.025 33.1273 113.868 33.1273C113.084 33.1273 112.371 33.3898 111.731 33.9071C111.093 34.429 110.677 35.1104 110.481 35.9543C110.384 36.3479 110.332 36.6685 110.332 36.9219V39.309C110.332 40.3483 110.653 41.2265 111.288 41.9451C111.926 42.6593 112.756 43.0201 113.779 43.0201C114.978 43.0201 115.91 42.5564 116.575 41.6365C117.243 40.7136 117.577 39.4969 117.577 37.985ZM139.222 39.6326C139.222 41.3219 138.631 42.6951 137.458 43.7552C136.166 44.9122 134.363 45.4922 132.051 45.4922C129.916 45.4922 128.203 45.0807 126.912 44.2562L127.647 41.6067C129.042 42.4327 130.573 42.8442 132.241 42.8442C133.44 42.8442 134.372 42.5728 135.037 42.0346C135.704 41.4948 136.041 40.7732 136.041 39.8726C136.041 39.066 135.762 38.3906 135.215 37.8404C134.664 37.2917 133.754 36.7803 132.476 36.3106C129.001 35.0149 127.262 33.1199 127.262 30.6269C127.262 28.9987 127.877 27.6658 129.103 26.6236C130.329 25.5829 131.954 25.0625 133.977 25.0625C135.783 25.0625 137.288 25.3771 138.482 26.0048L137.684 28.5962C136.56 27.9878 135.291 27.6837 133.871 27.6837C132.749 27.6837 131.869 27.9595 131.24 28.5082C130.71 28.9987 130.442 29.5966 130.442 30.3064C130.442 31.0891 130.748 31.7392 131.356 32.2491C131.884 32.7188 132.848 33.2302 134.241 33.7789C135.95 34.4677 137.206 35.2699 138.009 36.1913C138.819 37.1128 139.222 38.2624 139.222 39.6326ZM149.762 33.2764H146.257V40.223C146.257 41.9899 146.874 42.871 148.112 42.871C148.68 42.871 149.152 42.8233 149.524 42.7234L149.612 45.1374C148.986 45.3715 148.161 45.4892 147.14 45.4892C145.884 45.4892 144.903 45.1061 144.194 44.3397C143.489 43.5733 143.134 42.2896 143.134 40.4825V33.2705H141.046V30.8849H143.134V28.2652L146.257 27.3229V30.8849H149.762V33.2764ZM165.544 37.9269C165.544 40.1261 164.914 41.9317 163.658 43.3437C162.345 44.7974 160.597 45.5221 158.418 45.5221C156.315 45.5221 154.643 44.8258 153.396 43.4346C152.149 42.0406 151.526 40.2842 151.526 38.1654C151.526 35.9483 152.17 34.1323 153.454 32.7203C154.741 31.3068 156.474 30.6001 158.653 30.6001C160.753 30.6001 162.44 31.2979 163.717 32.6905C164.937 34.0413 165.544 35.7858 165.544 37.9269ZM162.248 37.9999C162.248 36.6893 161.964 35.5651 161.396 34.6243C160.729 33.4882 159.775 32.9201 158.538 32.9201C157.265 32.9201 156.288 33.4882 155.623 34.6243C155.053 35.5651 154.77 36.7087 154.77 38.0596C154.77 39.3717 155.053 40.4989 155.623 41.4367C156.31 42.5728 157.269 43.1409 158.512 43.1409C159.727 43.1409 160.68 42.5609 161.369 41.4084C161.954 40.4452 162.248 39.3135 162.248 37.9999ZM175.883 33.6865C175.553 33.6268 175.217 33.5973 174.881 33.5985C173.763 33.5985 172.898 34.019 172.289 34.8658C171.761 35.6113 171.496 36.5537 171.496 37.6913V45.1985H168.316V35.3966C168.319 33.8947 168.288 32.3929 168.224 30.8923H170.993L171.109 33.6298H171.197C171.535 32.689 172.062 31.9301 172.787 31.362C173.451 30.8656 174.257 30.5968 175.086 30.5956C175.379 30.5956 175.645 30.6165 175.88 30.6538L175.883 33.6865ZM190.104 37.3678C190.112 37.851 190.073 38.3339 189.988 38.8096H180.449C180.484 40.223 180.947 41.3055 181.833 42.051C182.637 42.716 183.676 43.05 184.953 43.05C186.365 43.05 187.654 42.8263 188.812 42.3745L189.311 44.5797C187.956 45.1702 186.358 45.4639 184.513 45.4639C182.293 45.4639 180.552 44.8108 179.284 43.5077C178.019 42.2031 177.385 40.4497 177.385 38.2534C177.385 36.0974 177.974 34.3008 179.154 32.8679C180.389 31.3381 182.058 30.5732 184.158 30.5732C186.22 30.5732 187.782 31.3381 188.842 32.8679C189.682 34.0801 190.104 35.583 190.104 37.3678ZM187.072 36.5432C187.094 35.5994 186.885 34.7868 186.454 34.0995C185.904 33.2138 185.057 32.7725 183.922 32.7725C182.883 32.7725 182.035 33.2034 181.391 34.0682C180.862 34.7555 180.547 35.5815 180.45 36.5402L187.072 36.5432Z" fill="white"/>
<path d="M75.3488 18.3446C74.4644 18.3446 73.6993 18.3013 73.0625 18.2283V8.63517C73.9532 8.49762 74.8532 8.42982 75.7545 8.43239C79.4009 8.43239 81.0803 10.2261 81.0803 13.1499C81.0803 16.5226 79.0967 18.3446 75.3488 18.3446ZM75.8827 9.66247C75.3906 9.66247 74.9715 9.69229 74.624 9.76386V17.0564C74.8119 17.0862 75.1728 17.0996 75.6799 17.0996C78.0691 17.0996 79.4293 15.7398 79.4293 13.1932C79.4293 10.9224 78.1989 9.66247 75.8827 9.66247ZM86.3136 18.4176C84.2584 18.4176 82.9266 16.8834 82.9266 14.8005C82.9266 12.6296 84.2868 11.0819 86.4299 11.0819C88.4552 11.0819 89.8169 12.5431 89.8169 14.6857C89.8169 16.8834 88.4135 18.4176 86.3136 18.4176ZM86.3732 12.224C85.2442 12.224 84.5209 13.2796 84.5209 14.7557C84.5209 16.2035 85.2592 17.2591 86.3583 17.2591C87.4575 17.2591 88.1957 16.1304 88.1957 14.7259C88.1957 13.2946 87.4724 12.224 86.3732 12.224ZM101.536 11.2265L99.3365 18.2581H97.9032L96.992 15.2045C96.7654 14.4576 96.5768 13.6997 96.4267 12.9337H96.3969C96.2821 13.7001 96.0643 14.468 95.8332 15.2045L94.8638 18.2581H93.4156L91.3455 11.2265H92.9518L93.7482 14.5694C93.9361 15.3656 94.0942 16.117 94.2254 16.8267H94.2553C94.3701 16.2348 94.558 15.4953 94.8339 14.5843L95.8332 11.228H97.1068L98.0628 14.5127C98.294 15.3089 98.4819 16.0902 98.628 16.8282H98.6698C98.7712 16.1051 98.9308 15.3372 99.1471 14.5127L100.002 11.228L101.536 11.2265ZM109.635 18.2581H108.072V14.2205C108.072 12.977 107.594 12.3537 106.653 12.3537C105.727 12.3537 105.09 13.1499 105.09 14.0758V18.2581H103.527V13.2364C103.527 12.6147 103.512 11.9482 103.469 11.225H104.844L104.917 12.3105H104.961C105.381 11.559 106.234 11.0819 107.19 11.0819C108.667 11.0819 109.636 12.2106 109.636 14.0475L109.635 18.2581ZM113.945 18.2581H112.38V8H113.945V18.2581ZM119.643 18.4176C117.59 18.4176 116.256 16.8834 116.256 14.8005C116.256 12.6296 117.617 11.0819 119.758 11.0819C121.785 11.0819 123.145 12.5431 123.145 14.6857C123.147 16.8834 121.742 18.4176 119.643 18.4176ZM119.701 12.224C118.573 12.224 117.849 13.2796 117.849 14.7557C117.849 16.2035 118.589 17.2591 119.685 17.2591C120.786 17.2591 121.522 16.1304 121.522 14.7259C121.524 13.2946 120.802 12.224 119.701 12.224ZM129.308 18.2581L129.194 17.4485H129.152C128.675 18.1001 127.979 18.4176 127.096 18.4176C125.836 18.4176 124.941 17.535 124.941 16.3481C124.941 14.6126 126.446 13.715 129.051 13.715V13.5853C129.051 12.6594 128.56 12.1957 127.591 12.1957C126.897 12.1957 126.289 12.3701 125.754 12.7175L125.436 11.6902C126.086 11.2847 126.898 11.0819 127.851 11.0819C129.688 11.0819 130.616 12.0511 130.616 13.9909V16.5807C130.616 17.2904 130.647 17.8406 130.717 18.2596L129.308 18.2581ZM129.093 14.7557C127.357 14.7557 126.486 15.1762 126.486 16.1737C126.486 16.9117 126.935 17.2726 127.558 17.2726C128.353 17.2726 129.093 16.6657 129.093 15.8412V14.7557ZM138.205 18.2581L138.132 17.1294H138.089C137.64 17.9823 136.885 18.4176 135.831 18.4176C134.135 18.4176 132.88 16.9266 132.88 14.8288C132.88 12.6296 134.181 11.0804 135.959 11.0804C136.9 11.0804 137.567 11.398 137.943 12.0361H137.974V8H139.539V16.363C139.539 17.0429 139.555 17.6796 139.597 18.2581H138.205ZM137.974 14.1206C137.974 13.1365 137.322 12.2971 136.328 12.2971C135.169 12.2971 134.46 13.3244 134.46 14.7706C134.46 16.1886 135.196 17.1592 136.296 17.1592C137.279 17.1592 137.974 16.3049 137.974 15.2925V14.1206ZM149.458 18.4176C147.404 18.4176 146.072 16.8834 146.072 14.8005C146.072 12.6296 147.433 11.0819 149.574 11.0819C151.601 11.0819 152.961 12.5431 152.961 14.6857C152.963 16.8834 151.559 18.4176 149.458 18.4176ZM149.516 12.224C148.389 12.224 147.665 13.2796 147.665 14.7557C147.665 16.2035 148.403 17.2591 149.501 17.2591C150.602 17.2591 151.339 16.1304 151.339 14.7259C151.342 13.2946 150.618 12.224 149.516 12.224ZM161.367 18.2581H159.802V14.2205C159.802 12.977 159.325 12.3537 158.384 12.3537C157.458 12.3537 156.822 13.1499 156.822 14.0758V18.2581H155.258V13.2364C155.258 12.6147 155.243 11.9482 155.2 11.225H156.575L156.648 12.3105H156.691C157.11 11.559 157.965 11.0804 158.919 11.0804C160.396 11.0804 161.367 12.2091 161.367 14.046V18.2581ZM171.883 12.3985H170.163V15.8129C170.163 16.6821 170.464 17.116 171.073 17.116C171.349 17.116 171.58 17.0862 171.766 17.0429L171.809 18.2298C171.507 18.3461 171.101 18.4042 170.597 18.4042C169.365 18.4042 168.628 17.7243 168.628 15.9441V12.3985H167.602V11.2265H168.628V9.9383L170.163 9.4746V11.225H171.883V12.3985ZM180.157 18.2581H178.595V14.2503C178.595 12.9919 178.12 12.3552 177.177 12.3552C176.367 12.3552 175.613 12.9054 175.613 14.0192V18.2581H174.051V8H175.613V12.224H175.644C176.136 11.4576 176.849 11.0804 177.759 11.0804C179.247 11.0804 180.157 12.2374 180.157 14.0758V18.2581ZM188.634 15.1181H183.943C183.973 16.4495 184.855 17.201 186.16 17.201C186.853 17.201 187.492 17.0847 188.055 16.8685L188.298 17.9539C187.633 18.2432 186.85 18.3878 185.939 18.3878C183.739 18.3878 182.437 16.9982 182.437 14.8437C182.437 12.6877 183.77 11.067 185.763 11.067C187.56 11.067 188.688 12.3985 188.688 14.4098C188.698 14.6472 188.68 14.8849 188.634 15.1181ZM187.201 14.0043C187.201 12.9188 186.653 12.1524 185.654 12.1524C184.756 12.1524 184.046 12.9337 183.945 14.0043H187.201Z" fill="white"/>
</svg>
