<svg width="1238" height="1144" viewBox="0 0 1238 1144" fill="none" xmlns="http://www.w3.org/2000/svg">
    <g opacity="0.3">
        <circle cx="618" cy="566" r="565.382" stroke="#70A5FF" stroke-width="1.23581"/>
        <circle cx="618" cy="566.006" r="434.732" stroke="#70A5FF" stroke-width="1.23581"/>
        <circle cx="618.001" cy="566" r="302.155" stroke="#70A5FF" stroke-width="1.23581"/>
        <g clip-path="url(#clip0_4734_3046)">
            <path opacity="0.5" d="M324.658 290.477L345.038 282.28C359.351 276.523 366.51 273.644 370.295 268.206C371.93 265.86 373.086 263.216 373.697 260.423C375.103 253.997 372.276 246.966 366.624 232.915C360.973 218.863 358.145 211.832 352.681 208.169C350.307 206.578 347.641 205.47 344.838 204.909C340.664 204.068 336.215 204.956 329.771 207.228C326.749 208.444 323.245 207.243 321.482 204.568C320.172 202.617 318.229 201.178 315.98 200.494C313.732 199.81 311.316 199.924 309.141 200.815L294.154 206.843C289.623 208.665 286.984 213.376 287.848 218.096C288.428 221.246 286.731 224.539 283.709 225.754C277.491 228.575 273.668 231.018 271.232 234.512C269.599 236.858 268.445 239.502 267.835 242.293C266.424 248.722 269.25 255.747 274.903 269.804C280.556 283.86 283.38 290.881 288.846 294.549C291.209 296.134 293.872 297.243 296.689 297.809C303.186 299.112 310.344 296.233 324.658 290.477Z" fill="#63A0F9"/>
            <path d="M338.697 222.339C338.197 222.535 337.742 222.827 337.356 223.199C336.969 223.571 336.66 224.015 336.446 224.507C336.231 224.998 336.116 225.527 336.106 226.063C336.096 226.599 336.191 227.132 336.387 227.631C337.221 229.704 339.606 230.695 341.716 229.846L346.811 227.797C348.921 226.949 349.959 224.576 349.127 222.507C348.923 222.011 348.622 221.56 348.244 221.18C347.865 220.8 347.415 220.498 346.919 220.292C346.424 220.086 345.892 219.98 345.356 219.98C344.819 219.979 344.288 220.084 343.792 220.29L338.697 222.339Z" fill="#63A0F9"/>
            <path fill-rule="evenodd" clip-rule="evenodd" d="M313.216 232.597C302.668 236.839 297.49 248.683 301.656 259.043C305.823 269.403 317.755 274.365 328.312 270.119C338.86 265.876 344.04 254.038 339.874 243.678C335.707 233.318 323.773 228.351 313.221 232.595M316.24 240.103C309.911 242.648 306.802 249.754 309.301 255.968C311.8 262.182 318.966 265.161 325.294 262.616C331.628 260.069 334.733 252.965 332.232 246.746C329.732 240.532 322.573 237.556 316.24 240.103Z" fill="#63A0F9"/>
        </g>
        <path opacity="0.5" d="M1111.26 689.755C1117.24 661.408 1145.06 643.277 1173.41 649.258C1201.76 655.238 1219.89 683.064 1213.91 711.411C1207.93 739.758 1180.1 757.889 1151.75 751.908C1123.41 745.928 1105.28 718.102 1111.26 689.755Z" fill="#63A0F9"/>
        <path d="M1162.33 682.136L1150.25 688.192C1145.19 690.731 1142.65 692.003 1142.67 694.018L1142.67 694.119C1142.75 696.136 1145.34 697.455 1150.53 700.089C1153.41 701.554 1154.86 702.288 1155.33 703.594L1155.36 703.663C1155.8 704.985 1155.1 706.369 1153.69 709.139L1153.32 709.866C1149.42 717.545 1147.47 721.385 1149.29 723.142C1151.12 724.899 1155.02 722.945 1162.83 719.029L1174.91 712.978C1179.98 710.435 1182.51 709.167 1182.5 707.149L1182.5 707.047C1182.41 705.029 1179.82 703.711 1174.63 701.077C1171.75 699.612 1170.31 698.878 1169.83 697.572L1169.81 697.503C1169.36 696.186 1170.07 694.802 1171.47 692.032L1171.84 691.305C1175.74 683.625 1177.69 679.781 1175.87 678.024C1174.05 676.267 1170.14 678.225 1162.33 682.136Z" fill="#63A0F9"/>
        <g clip-path="url(#clip1_4734_3046)">
            <path d="M33.7202 611.104C35.5579 610.675 37.3811 611.758 37.794 613.525L39.3009 619.975C42.2396 619.233 45.5484 618.46 49.2725 617.589L67.0094 613.445C70.7291 612.576 74.0379 611.803 77.0023 611.171L75.4954 604.721C75.0825 602.954 76.2358 601.171 78.0736 600.741C79.9113 600.312 81.7345 601.395 82.1474 603.162L83.7224 609.904C90.2205 608.903 94.6947 609.129 98.462 611.375C102.237 613.614 104.433 617.35 106.376 623.372L107.475 626.483L19.1221 647.127L18.3748 643.928C17.4525 637.668 17.7658 633.346 20.1534 629.667C22.5409 625.988 26.4461 623.799 32.715 621.817L31.141 615.08C30.7281 613.313 31.8824 611.534 33.7202 611.104Z" fill="#63A0F9"/>
            <path opacity="0.5" d="M112.638 648.577L110.573 639.742C109.707 636.036 108.145 629.431 107.402 626.507L19.1675 647.122C19.7965 650.073 21.3538 656.679 22.2198 660.386L24.2842 669.221C28.1765 685.88 30.1232 694.212 36.5093 698.175C42.8955 702.138 51.2194 700.198 67.8829 696.305L85.5535 692.176C102.208 688.285 110.54 686.338 114.508 679.951C118.475 673.564 116.531 665.241 112.638 648.577Z" fill="#63A0F9"/>
            <path d="M98.0626 665.96C98.3364 667.132 98.1335 668.364 97.4986 669.386C96.8637 670.408 95.8488 671.136 94.6771 671.41C93.5055 671.684 92.2731 671.481 91.2511 670.846C90.229 670.211 89.5011 669.196 89.2273 668.024C88.9536 666.853 89.1565 665.62 89.7914 664.598C90.4263 663.576 91.4412 662.848 92.6128 662.575C93.7844 662.301 95.0168 662.504 96.0389 663.139C97.0609 663.774 97.7889 664.788 98.0626 665.96ZM93.934 648.289C94.2077 649.461 94.0048 650.693 93.3699 651.716C92.735 652.738 91.7201 653.466 90.5485 653.739C89.3768 654.013 88.1444 653.81 87.1224 653.175C86.1003 652.54 85.3724 651.525 85.0986 650.354C84.8249 649.182 85.0278 647.95 85.6627 646.928C86.2976 645.906 87.3125 645.178 88.4841 644.904C89.6558 644.63 90.8882 644.833 91.9102 645.468C92.9323 646.103 93.6602 647.118 93.934 648.289ZM75.9743 671.121C76.2481 672.293 76.0452 673.525 75.4103 674.547C74.7754 675.569 73.7605 676.297 72.5888 676.571C71.4172 676.845 70.1848 676.642 69.1627 676.007C68.1407 675.372 67.4127 674.357 67.139 673.185C66.8652 672.014 67.0681 670.781 67.703 669.759C68.3379 668.737 69.3528 668.009 70.5245 667.735C71.6961 667.462 72.9285 667.665 73.9506 668.3C74.9726 668.934 75.7006 669.949 75.9743 671.121ZM71.8456 653.45C72.1194 654.622 71.9165 655.854 71.2816 656.876C70.6467 657.898 69.6318 658.626 68.4601 658.9C67.2885 659.174 66.0561 658.971 65.0341 658.336C64.012 657.701 63.2841 656.686 63.0103 655.515C62.7366 654.343 62.9395 653.111 63.5744 652.089C64.2093 651.067 65.2242 650.339 66.3958 650.065C67.5674 649.791 68.7998 649.994 69.8219 650.629C70.8439 651.264 71.5719 652.279 71.8456 653.45ZM53.886 676.282C54.1597 677.453 53.9568 678.686 53.3219 679.708C52.687 680.73 51.6721 681.458 50.5005 681.732C49.3288 682.005 48.0964 681.802 47.0744 681.168C46.0524 680.533 45.3244 679.518 45.0506 678.346C44.7769 677.175 44.9798 675.942 45.6147 674.92C46.2496 673.898 47.2645 673.17 48.4361 672.896C49.6078 672.623 50.8402 672.825 51.8622 673.46C52.8843 674.095 53.6122 675.11 53.886 676.282ZM49.7573 658.611C50.0311 659.783 49.8282 661.015 49.1933 662.037C48.5583 663.059 47.5434 663.787 46.3718 664.061C45.2002 664.335 43.9678 664.132 42.9457 663.497C41.9237 662.862 41.1957 661.847 40.922 660.675C40.6482 659.504 40.8511 658.271 41.486 657.249C42.1209 656.227 43.1358 655.499 44.3075 655.226C45.4791 654.952 46.7115 655.155 47.7335 655.79C48.7556 656.425 49.4836 657.44 49.7573 658.611Z" fill="#63A0F9"/>
        </g>
        <g clip-path="url(#clip2_4734_3046)">
            <path d="M319.782 1109.5C327.363 1116 331.154 1119.24 335.785 1120.3L347.008 1071.24L306.607 1036.56L306.335 1036.84C302.264 1041.15 300.846 1047.34 298.012 1059.73L297.881 1060.31C295.048 1072.69 293.631 1078.89 295.422 1084.53C297.217 1090.18 301.861 1094.16 311.147 1102.11L319.782 1109.5Z" fill="#63A0F9"/>
            <path opacity="0.7" d="M382.864 1040.36L374.231 1032.97C366.654 1026.48 362.864 1023.23 358.232 1022.17C353.596 1021.11 348.777 1022.38 339.127 1024.94L328.137 1027.84C316.575 1030.9 310.663 1032.46 306.609 1036.55L347.009 1071.23L398.47 1057.57C396.589 1052.11 391.953 1048.14 382.864 1040.36Z" fill="#63A0F9"/>
            <path opacity="0.5" d="M398.597 1057.95L398.471 1057.58L347.01 1071.24L335.787 1120.3C340.419 1121.36 345.243 1120.09 354.893 1117.54L365.883 1114.63C377.703 1111.51 383.615 1109.95 387.688 1105.64C391.755 1101.33 393.173 1095.14 396.004 1082.76L396.136 1082.19C398.969 1069.8 400.388 1063.6 398.597 1057.95Z" fill="#63A0F9"/>
        </g>
        <path d="M721.179 851.875L763.895 839.171C764.825 842.333 765.461 844.707 765.704 846.657C765.99 848.986 765.659 850.36 764.868 851.505C764.074 852.651 762.776 853.633 760.102 854.75C757.349 855.901 753.584 857.028 748.182 858.635L733.133 863.111C727.731 864.717 723.959 865.835 721.027 866.371C718.177 866.897 716.554 866.784 715.262 866.259C713.971 865.733 712.946 864.762 711.914 862.658L711.687 862.167C711.257 861.219 711.041 860.744 711.123 859.451C711.207 858.154 711.337 857.919 711.601 857.441C712.469 855.928 713.749 854.692 715.293 853.877C716.215 853.374 717.5 852.969 721.179 851.875Z" fill="#63A0F9"/>
        <path d="M696.585 802.74C697.314 801.384 698.566 800.273 701.206 799.081C703.925 797.854 707.674 796.732 713.055 795.131L728.05 790.672C733.431 789.071 737.184 787.963 740.131 787.504C742.994 787.059 744.65 787.306 746.001 788.043C747.348 788.781 748.461 790.048 749.656 792.713C750.886 795.454 752.019 799.24 753.632 804.665L763.896 839.174L721.179 851.878C717.497 852.973 716.219 853.375 715.293 853.88C713.661 854.772 712.382 856.029 711.601 857.444C711.337 857.922 711.207 858.157 711.123 859.454C711.067 860.011 711.113 860.574 711.258 861.115L699.277 820.831C697.664 815.405 696.545 811.619 696.076 808.649C695.622 805.767 695.86 804.094 696.585 802.74Z" fill="#9AC8FB"/>
        <path d="M709.469 814.689C709.268 814.013 709.344 813.285 709.679 812.665C710.015 812.045 710.583 811.584 711.259 811.383L738.436 803.3C739.112 803.099 739.84 803.175 740.46 803.51C741.08 803.846 741.541 804.414 741.742 805.09C741.943 805.766 741.867 806.494 741.532 807.114C741.196 807.734 740.628 808.195 739.952 808.396L712.774 816.479C712.099 816.68 711.371 816.604 710.751 816.268C710.131 815.932 709.67 815.364 709.469 814.689ZM714.795 823.273C714.119 823.474 713.551 823.935 713.216 824.555C712.88 825.175 712.804 825.903 713.005 826.579C713.206 827.254 713.667 827.823 714.287 828.158C714.907 828.494 715.635 828.57 716.311 828.369L733.297 823.317C733.972 823.116 734.541 822.655 734.876 822.035C735.212 821.415 735.288 820.687 735.087 820.011C734.886 819.336 734.425 818.767 733.805 818.432C733.185 818.096 732.457 818.02 731.781 818.221L714.795 823.273Z" fill="#63A0F9"/>
        <path opacity="0.5" d="M964.692 349.164C964.08 341.154 963.771 337.147 965.881 334.164C967.996 331.183 971.874 330.144 979.637 328.064L992.804 324.536C1000.57 322.455 1004.45 321.416 1007.77 322.94C1011.09 324.467 1012.83 328.089 1016.3 335.336L1022.24 347.717C1027.12 357.907 1029.57 363.002 1027.58 367.321C1025.6 371.64 1020.14 373.102 1009.22 376.026L991.166 380.865C980.251 383.79 974.792 385.252 970.915 382.505C967.035 379.758 966.605 374.123 965.741 362.855L964.692 349.164Z" fill="#63A0F9"/>
        <path d="M978.003 324.951C977.482 323.006 977.755 320.934 978.761 319.19C979.768 317.446 981.426 316.174 983.371 315.653C985.316 315.132 987.388 315.405 989.132 316.411C990.876 317.418 992.148 319.076 992.669 321.021L993.542 324.28C995.387 323.786 997.005 323.359 998.444 323.019L997.558 319.711C996.689 316.47 994.569 313.706 991.662 312.028C988.756 310.35 985.303 309.896 982.061 310.764C978.82 311.633 976.056 313.753 974.378 316.66C972.7 319.566 972.246 323.019 973.114 326.261L974.001 329.569C975.417 329.144 977.032 328.704 978.876 328.21L978.003 324.951ZM986.948 356.664C987.836 357.96 989.105 358.948 990.579 359.492C992.053 360.037 993.659 360.111 995.176 359.704C996.694 359.297 998.048 358.43 999.052 357.222C1000.06 356.014 1000.66 354.524 1000.78 352.957C1000.8 352.622 1000.89 352.295 1001.04 351.993C1001.19 351.692 1001.39 351.424 1001.65 351.203C1001.9 350.983 1002.2 350.815 1002.52 350.71C1002.83 350.605 1003.17 350.564 1003.51 350.591C1003.84 350.617 1004.17 350.709 1004.47 350.863C1004.76 351.016 1005.03 351.228 1005.25 351.485C1005.46 351.742 1005.62 352.039 1005.72 352.36C1005.82 352.681 1005.86 353.018 1005.83 353.352C1005.62 355.961 1004.62 358.443 1002.94 360.456C1001.27 362.469 999.014 363.913 996.486 364.591C993.958 365.268 991.282 365.145 988.826 364.239C986.371 363.332 984.257 361.687 982.776 359.529C982.409 358.975 982.275 358.3 982.401 357.648C982.528 356.996 982.906 356.42 983.453 356.045C984 355.669 984.673 355.523 985.327 355.639C985.981 355.755 986.563 356.123 986.948 356.664Z" fill="#63A0F9"/>
        <g clip-path="url(#clip3_4734_3046)">
            <path opacity="0.5" d="M687.035 26.0278C691.091 23.1632 696.657 24.1174 707.792 26.0266C718.928 27.9359 724.496 28.8905 727.361 32.9417C730.228 36.9981 729.274 42.5636 727.365 53.6992C725.455 64.8348 724.501 70.4026 720.447 73.2676C716.398 76.1357 710.828 75.1807 699.692 73.2715C688.556 71.3623 682.989 70.4077 680.121 66.3537C677.255 62.3048 678.211 56.7346 680.12 45.599C682.029 34.4634 682.984 28.8956 687.035 26.0278Z" fill="#63A0F9"/>
            <path d="M703.286 62.954C703.205 63.4239 702.941 63.8425 702.552 64.1178C702.163 64.3931 701.68 64.5025 701.21 64.422C700.74 64.3414 700.322 64.0775 700.046 63.6883C699.771 63.299 699.662 62.8164 699.742 62.3465L702.172 48.1731C702.521 46.1369 702.047 44.0455 700.854 42.3589C699.662 40.6722 697.847 39.5286 695.811 39.1795L695.363 39.1025L695.793 39.7113C696.048 40.1008 696.143 40.5743 696.056 41.0319C695.969 41.4895 695.708 41.8955 695.328 42.1644C694.948 42.4334 694.478 42.5443 694.017 42.4737C693.557 42.4031 693.142 42.1565 692.86 41.786L689.924 37.6351C689.649 37.246 689.54 36.7638 689.62 36.2943C689.701 35.8248 689.965 35.4064 690.353 35.1311L694.504 32.1953C694.894 31.9399 695.367 31.8457 695.825 31.9325C696.282 32.0193 696.688 32.2803 696.957 32.6606C697.226 33.0408 697.337 33.5106 697.266 33.971C697.196 34.4314 696.949 34.8464 696.579 35.1286L695.97 35.5592L696.419 35.6361C700.387 36.3165 703.519 38.9738 704.982 42.4224C706.269 41.0121 707.89 39.9481 709.696 39.3284C711.502 38.7087 713.435 38.5532 715.317 38.8762L715.766 38.9531L715.335 38.3443C715.08 37.9548 714.985 37.4814 715.072 37.0238C715.159 36.5662 715.42 36.1602 715.8 35.8912C716.181 35.6223 716.65 35.5114 717.111 35.582C717.571 35.6526 717.986 35.8991 718.268 36.2697L721.204 40.4206C721.479 40.8096 721.588 41.2919 721.508 41.7614C721.427 42.2309 721.164 42.6492 720.775 42.9245L716.624 45.8604C716.432 46.0066 716.212 46.1127 715.978 46.1723C715.745 46.2319 715.501 46.2437 715.262 46.2071C715.024 46.1705 714.795 46.0863 714.59 45.9593C714.384 45.8324 714.207 45.6654 714.067 45.4683C713.928 45.2713 713.83 45.0481 713.778 44.8122C713.727 44.5764 713.724 44.3326 713.769 44.0954C713.814 43.8582 713.906 43.6326 714.04 43.4318C714.174 43.2311 714.347 43.0594 714.549 42.9271L715.158 42.4965L714.709 42.4196C712.673 42.0705 710.582 42.5445 708.895 43.7374C707.208 44.9304 706.065 46.7444 705.716 48.7806L703.286 62.954Z" fill="#63A0F9"/>
        </g>
    </g>
    <defs>
        <clipPath id="clip0_4734_3046">
            <rect width="118.634" height="118.634" fill="white" transform="translate(241.081 212.203) rotate(-21.9093)"/>
        </clipPath>
        <clipPath id="clip1_4734_3046">
            <rect width="108.879" height="108.879" fill="white" transform="translate(0.997803 609.43) rotate(-13.151)"/>
        </clipPath>
        <clipPath id="clip2_4734_3046">
            <rect width="120.788" height="120.788" fill="white" transform="translate(301.603 998.898) rotate(12.885)"/>
        </clipPath>
        <clipPath id="clip3_4734_3046">
            <rect width="57.5211" height="57.5211" fill="white" transform="translate(680.255 16.4453) rotate(9.72882)"/>
        </clipPath>
    </defs>
</svg>