<svg width="968" height="563" viewBox="0 0 968 563" fill="none" xmlns="http://www.w3.org/2000/svg">
<g opacity="0.5">
<circle opacity="0.23" cx="468.318" cy="256.004" r="224.973" fill="#166AF6"/>
<circle opacity="0.23" cx="465.052" cy="255.195" r="172.71" fill="#166AF6"/>
<g opacity="0.5">
<circle cx="466.545" cy="256.367" r="140.968" fill="#E4EEFF"/>
<path d="M438.673 224.107C438.673 219.667 436.868 215.41 433.656 212.27C430.443 209.131 426.085 207.367 421.542 207.367C416.998 207.367 412.641 209.131 409.428 212.27C406.215 215.41 404.41 219.667 404.41 224.107C404.41 228.547 406.215 232.805 409.428 235.944C412.641 239.083 416.998 240.847 421.542 240.847C426.085 240.847 430.443 239.083 433.656 235.944C436.868 232.805 438.673 228.547 438.673 224.107ZM390.705 265.957C390.705 270.587 394.533 274.327 399.271 274.327H422.184C424.888 264.021 432.517 255.625 442.474 251.676C439.878 250.106 436.8 249.217 433.534 249.217H407.837C398.388 249.217 390.705 256.724 390.705 265.957ZM514.266 274.327H536.323C541.061 274.327 544.889 270.587 544.889 265.957C544.889 256.724 537.207 249.217 527.757 249.217H502.06C498.928 249.217 495.984 250.028 493.468 251.467C503.666 255.338 511.509 263.838 514.266 274.327ZM486.856 258.215C485.009 257.796 483.055 257.587 481.074 257.587H455.377C453.101 257.587 450.906 257.875 448.818 258.398C440.574 260.517 433.935 266.532 431.125 274.327C430.188 276.943 429.653 279.768 429.653 282.697C429.653 287.327 433.48 291.067 438.218 291.067H498.179C502.917 291.067 506.745 287.327 506.745 282.697C506.745 279.768 506.236 276.943 505.272 274.327C502.381 266.297 495.422 260.15 486.829 258.215H486.856ZM532.897 224.107C532.897 219.667 531.092 215.41 527.879 212.27C524.666 209.131 520.309 207.367 515.765 207.367C511.222 207.367 506.864 209.131 503.652 212.27C500.439 215.41 498.634 219.667 498.634 224.107C498.634 228.547 500.439 232.805 503.652 235.944C506.864 239.083 511.222 240.847 515.765 240.847C520.309 240.847 524.666 239.083 527.879 235.944C531.092 232.805 532.897 228.547 532.897 224.107ZM468.225 249.217C473.905 249.217 479.352 247.013 483.368 243.088C487.384 239.164 489.64 233.842 489.64 228.292C489.64 222.742 487.384 217.42 483.368 213.496C479.352 209.572 473.905 207.367 468.225 207.367C462.546 207.367 457.099 209.572 453.083 213.496C449.067 217.42 446.811 222.742 446.811 228.292C446.811 233.842 449.067 239.164 453.083 243.088C457.099 247.013 462.546 249.217 468.225 249.217Z" fill="url(#paint0_linear_4730_3290)"/>
</g>
<g opacity="0.5">
<g clip-path="url(#clip0_4730_3290)">
<path d="M321.367 38.7633L299.027 51.6616C291.737 55.8702 288.09 57.9757 286.239 61.3939C285.921 61.9842 285.647 62.5968 285.419 63.2271C284.088 66.8789 284.925 71.0041 286.615 79.2556L286.717 79.7627C287.639 84.2831 288.103 86.5441 289.597 87.5917C290.07 87.9215 290.6 88.1592 291.16 88.2924C292.935 88.7175 294.935 87.5629 298.931 85.2558L350.517 55.4727C354.513 53.1656 356.509 52.0132 357.032 50.2616C357.192 49.7141 357.251 49.1296 357.202 48.5598C357.042 46.7424 355.316 45.2099 351.862 42.1512L351.474 41.809C345.173 36.2197 342.023 33.4301 338.195 32.7566C337.534 32.6397 336.865 32.5715 336.194 32.5524C332.308 32.4469 328.661 34.5524 321.367 38.7633Z" fill="#EDEDED"/>
<path opacity="0.5" d="M351.886 126.974L360.164 122.195C366.707 118.417 369.977 116.529 371.095 113.307C372.213 110.085 370.822 106.576 368.032 99.5521L350.519 55.4903L298.933 85.2734L328.345 122.471C333.028 128.402 335.368 131.363 338.717 132.006C342.067 132.648 345.343 130.752 351.886 126.974Z" fill="#EDEDED"/>
<path d="M323.815 116.732L365.334 92.7609L356.783 71.2431L309.451 98.5703L323.815 116.732Z" fill="#EDEDED"/>
</g>
</g>
<g opacity="0.5">
<g clip-path="url(#clip1_4730_3290)">
<path opacity="0.6" d="M541.999 528.133C553.848 525.27 562.002 519.698 564.113 511.816C566.352 503.463 561.413 493.964 551.481 485.117C539.992 474.888 521.824 465.512 500.346 459.757C478.868 454.002 458.446 453.038 443.382 456.151C430.357 458.848 421.33 464.605 419.092 472.958C416.854 481.311 421.792 490.81 431.724 499.658C443.214 509.886 461.382 519.262 482.86 525.017C505.389 531.054 526.748 531.826 541.999 528.133Z" fill="#EDEDED"/>
<path fill-rule="evenodd" clip-rule="evenodd" d="M497.896 389.136C499.313 383.847 502.773 379.338 507.515 376.601C512.256 373.863 517.891 373.121 523.18 374.538C528.468 375.955 532.977 379.415 535.715 384.157C538.452 388.898 539.194 394.533 537.777 399.822C536.36 405.11 532.9 409.619 528.159 412.357C523.417 415.095 517.782 415.836 512.494 414.419C507.205 413.002 502.696 409.542 499.959 404.801C497.221 400.059 496.479 394.424 497.896 389.136Z" fill="#EDEDED"/>
<path d="M475.727 442.096L461.364 432.613C458.901 430.998 457.151 428.499 456.476 425.631C455.801 422.764 456.252 419.747 457.737 417.202C459.221 414.657 461.625 412.779 464.453 411.955C467.281 411.131 470.318 411.423 472.937 412.772L485.909 419.411L487.346 420.138C501.561 427.287 517.13 431.342 533.026 432.036L547.572 432.771C550.518 432.906 553.3 434.168 555.341 436.296C557.383 438.424 558.53 441.255 558.544 444.204C558.558 447.154 557.438 449.995 555.417 452.142C553.395 454.29 550.626 455.578 547.681 455.742L530.501 456.773C528.423 456.9 527.388 456.965 526.552 457.215C525.159 457.631 523.918 458.443 522.978 459.551C522.038 460.66 521.44 462.017 521.257 463.459C521.149 464.324 521.261 465.356 521.476 467.427L524.219 493.357C524.518 496.132 523.757 498.918 522.088 501.154C520.419 503.391 517.966 504.914 515.221 505.418C512.475 505.922 509.641 505.369 507.287 503.87C504.933 502.371 503.232 500.038 502.527 497.337L496.458 474.277L479.673 491.206C477.712 493.192 475.073 494.362 472.284 494.483C469.496 494.604 466.765 493.666 464.64 491.857C462.514 490.048 461.151 487.503 460.824 484.731C460.497 481.959 461.231 479.167 462.877 476.913L478.216 455.835C479.444 454.151 480.05 453.311 480.39 452.508C480.952 451.168 481.112 449.694 480.853 448.264C480.593 446.834 479.924 445.51 478.926 444.453C478.327 443.819 477.463 443.245 475.727 442.096Z" fill="#EDEDED"/>
</g>
</g>
<g opacity="0.5">
<g clip-path="url(#clip2_4730_3290)">
<path d="M308.044 381.043C309.781 380.578 311.551 381.554 311.998 383.224L313.632 389.32C316.408 388.523 319.535 387.685 323.055 386.742L339.821 382.249C343.337 381.307 346.464 380.469 349.268 379.776L347.635 373.68C347.187 372.009 348.231 370.275 349.968 369.81C351.705 369.344 353.474 370.32 353.922 371.99L355.629 378.362C361.787 377.209 366.056 377.287 369.713 379.31C373.377 381.327 375.583 384.818 377.619 390.493L378.762 393.423L295.248 415.8L294.438 412.777C293.367 406.843 293.533 402.717 295.693 399.139C297.854 395.562 301.506 393.357 307.416 391.277L305.71 384.909C305.262 383.239 306.307 381.509 308.044 381.043Z" fill="#EDEDED"/>
<path opacity="0.5" d="M384.356 414.298L382.118 405.946C381.18 402.443 379.489 396.2 378.691 393.438L295.29 415.785C295.98 418.577 297.666 424.82 298.605 428.324L300.843 436.675C305.062 452.421 307.172 460.297 313.376 463.875C319.58 467.453 327.448 465.35 343.199 461.129L359.902 456.654C375.644 452.436 383.519 450.326 387.102 444.12C390.684 437.915 388.577 430.048 384.356 414.298Z" fill="#EDEDED"/>
<path d="M371.008 431.288C371.305 432.395 371.149 433.575 370.576 434.568C370.003 435.561 369.059 436.286 367.951 436.582C366.844 436.879 365.664 436.724 364.671 436.151C363.678 435.577 362.953 434.633 362.657 433.526C362.36 432.418 362.515 431.238 363.089 430.245C363.662 429.252 364.606 428.528 365.714 428.231C366.821 427.934 368.001 428.09 368.994 428.663C369.987 429.236 370.711 430.18 371.008 431.288ZM366.533 414.585C366.829 415.693 366.674 416.873 366.101 417.866C365.527 418.858 364.583 419.583 363.476 419.88C362.368 420.176 361.188 420.021 360.195 419.448C359.203 418.875 358.478 417.93 358.181 416.823C357.885 415.715 358.04 414.535 358.613 413.543C359.186 412.55 360.131 411.825 361.238 411.528C362.346 411.232 363.526 411.387 364.518 411.96C365.511 412.534 366.236 413.478 366.533 414.585ZM350.13 436.882C350.426 437.99 350.271 439.17 349.698 440.163C349.125 441.156 348.18 441.88 347.073 442.177C345.965 442.474 344.785 442.318 343.793 441.745C342.8 441.172 342.075 440.227 341.778 439.12C341.482 438.013 341.637 436.833 342.21 435.84C342.784 434.847 343.728 434.122 344.835 433.825C345.943 433.529 347.123 433.684 348.116 434.257C349.108 434.831 349.833 435.775 350.13 436.882ZM345.654 420.18C345.951 421.287 345.796 422.467 345.222 423.46C344.649 424.453 343.705 425.177 342.597 425.474C341.49 425.771 340.31 425.615 339.317 425.042C338.324 424.469 337.6 423.525 337.303 422.417C337.006 421.31 337.162 420.13 337.735 419.137C338.308 418.144 339.252 417.419 340.36 417.123C341.467 416.826 342.647 416.981 343.64 417.555C344.633 418.128 345.358 419.072 345.654 420.18ZM329.251 442.477C329.548 443.584 329.393 444.764 328.819 445.757C328.246 446.75 327.302 447.474 326.195 447.771C325.087 448.068 323.907 447.913 322.914 447.339C321.921 446.766 321.197 445.822 320.9 444.714C320.603 443.607 320.759 442.427 321.332 441.434C321.905 440.441 322.849 439.717 323.957 439.42C325.064 439.123 326.244 439.278 327.237 439.852C328.23 440.425 328.955 441.369 329.251 442.477ZM324.776 425.774C325.073 426.881 324.917 428.061 324.344 429.054C323.771 430.047 322.827 430.772 321.719 431.068C320.612 431.365 319.432 431.21 318.439 430.637C317.446 430.063 316.721 429.119 316.425 428.012C316.128 426.904 316.283 425.724 316.856 424.731C317.43 423.738 318.374 423.014 319.481 422.717C320.589 422.42 321.769 422.576 322.762 423.149C323.755 423.722 324.479 424.666 324.776 425.774Z" fill="#EDEDED"/>
</g>
</g>
<g opacity="0.5">
<g clip-path="url(#clip3_4730_3290)">
<path d="M241.855 208.513C237.319 216.369 241.302 229.711 245.361 239.381C247.642 244.801 248.777 247.514 252.087 249.426C255.398 251.337 258.316 250.963 264.15 250.229C274.556 248.904 288.103 245.682 292.635 237.831C300.815 223.663 289.908 210.304 272.162 214.656C267.057 197.111 250.034 194.345 241.855 208.513Z" fill="#EDEDED"/>
<path opacity="0.5" d="M189.554 290.422L188.234 289.659C183.445 286.895 181.053 285.514 180.425 283.167C179.79 280.83 181.174 278.433 183.938 273.644L187.199 267.998C188.717 265.367 189.477 264.052 190.832 263.264C192.188 262.476 193.549 262.476 196.276 262.466C214.225 262.409 235.842 269.026 244.19 283.968C244.751 284.973 245.153 286.036 245.396 287.156C245.648 288.297 245.669 289.477 245.456 290.627C245.244 291.776 244.804 292.871 244.161 293.847C243.517 294.823 242.685 295.66 241.713 296.309C240.74 296.958 239.648 297.404 238.5 297.623C237.554 297.85 236.567 297.839 235.628 297.59C236.278 297.871 236.908 298.128 237.517 298.363C242.569 300.297 247.884 300.062 252.99 299.428L266.173 297.797C268.498 297.554 270.841 298.053 272.866 299.222C274.891 300.391 276.494 302.17 277.446 304.306C279.086 308.185 277.89 312.321 274.34 314.213C270.204 316.415 264.636 319.071 260.177 320.085C255.719 321.099 249.992 321.003 245.473 320.668C240.459 320.299 235.505 318.888 230.689 317.062C220.929 313.35 211.755 307.755 203.969 300.836C199.527 296.888 194.699 293.395 189.554 290.422Z" fill="#EDEDED"/>
</g>
</g>
</g>
<defs>
<linearGradient id="paint0_linear_4730_3290" x1="467.797" y1="207.367" x2="441.348" y2="304.813" gradientUnits="userSpaceOnUse">
<stop stop-color="#05B1F5"/>
<stop offset="1" stop-color="#166DF6"/>
</linearGradient>
<clipPath id="clip0_4730_3290">
<rect x="258.004" y="64.7812" width="109.969" height="109.969" rx="54.9843" transform="rotate(-30 258.004 64.7812)" fill="white"/>
</clipPath>
<clipPath id="clip1_4730_3290">
<rect x="438.597" y="342.156" width="180.165" height="180.165" rx="70.5736" transform="rotate(15 438.597 342.156)" fill="white"/>
</clipPath>
<clipPath id="clip2_4730_3290">
<rect x="276.827" y="380.445" width="103.751" height="103.751" rx="51.8757" transform="rotate(-15 276.827 380.445)" fill="white"/>
</clipPath>
<clipPath id="clip3_4730_3290">
<rect x="220.475" y="163.445" width="140.728" height="140.728" rx="58.8836" transform="rotate(30 220.475 163.445)" fill="white"/>
</clipPath>
</defs>
</svg>
