<svg width="171" height="106" viewBox="0 0 171 106" fill="none" xmlns="http://www.w3.org/2000/svg">
<path d="M57.8062 43.4241C57.4843 43.4114 57.0929 43.3014 56.8087 43.1698C57.066 42.9184 57.5028 42.5703 58.2745 42.1054C61.0605 40.4737 64.1884 39.7749 67.2413 40.0232C64.9599 41.963 60.8123 43.5124 57.8039 43.4182L57.808 43.42L57.8062 43.4241ZM84.5786 51.4637C84.1438 45.614 80.5709 40.4201 75.0487 37.5883C74.8626 37.4892 74.6912 37.4012 74.508 37.3178C76.1137 32.9946 75.2991 28.5401 71.9139 24.8402C61.73 13.704 35.4149 14.1045 16.0905 25.8777L21.4569 28.0976C38.8898 19.0103 61.0083 19.294 68.4426 27.8615C70.6163 30.3616 71.2275 33.0357 70.143 35.8314C65.3683 34.8204 60.3082 35.6118 55.9133 38.1887C51.9873 40.4891 51.6335 42.7686 52.0312 44.285C52.7064 46.8804 55.8499 47.9442 57.6737 47.9981C62.494 48.1507 68.7573 45.5262 71.6035 42.1596C71.8374 41.8837 72.0631 41.6043 72.2765 41.3195C72.4826 41.4176 72.7033 41.5267 72.9058 41.6329C77.0057 43.7436 79.9964 47.0187 81.1658 51.1334C85.2449 65.3334 69.966 65.9333 69.5001 66.1146L43.5756 66.4269C38.0823 66.0821 34.2331 60.9386 35.5117 55.6599L45.3134 29.9951C45.5095 29.2833 45.4219 28.3726 44.3722 28.3034L40.3894 28.4908C39.5447 28.4999 38.9221 29.048 38.6471 29.7501L24.5412 62.0924C21.6085 69.4401 27.8139 77.191 35.7399 76.0516L55.327 73.2379L55.3811 73.237C57.7119 73.0164 60.2109 72.7135 62.8775 72.3185C68.2831 71.5307 85.8101 67.679 84.575 51.4718L84.5786 51.4637Z" fill="url(#paint0_linear_4730_3156)"/>
<path d="M119.503 54.407C117.509 62.9195 109.415 68.9796 101.449 67.9119C97.9886 67.4455 95.0019 65.6482 93.0388 62.8476C90.801 59.6495 90.0855 55.3919 91.0703 51.169C93.0644 42.6565 101.158 36.5964 109.124 37.6641C110.283 37.8186 111.408 38.0938 112.421 38.5671C120.44 42.3107 120.268 51.1368 119.501 54.411L119.503 54.407ZM157.835 55.7074C159.283 51.244 159.567 46.0695 156.692 41.223C152.948 34.9188 145.039 32.8336 139.427 36.1764C138.896 36.4939 138.262 35.9806 138.488 35.4119L146.592 16.7223C146.798 16.1982 146.418 15.6299 145.853 15.6143L141.342 15.2907C140.769 15.2715 140.247 15.6024 140.02 16.1177L128.473 42.3941C127.834 43.6782 131.417 52.113 131.978 50.6844C136.652 38.7725 145.781 39.2396 148.935 40.6357C154.917 43.2885 156.481 49.4825 154.548 55.5033C150.644 67.6636 137.321 70.7812 131.404 60.3898C128.787 55.799 126.452 47.3496 121.377 39.828C118.842 36.0631 114.82 33.7204 110.245 33.109C100.55 31.8061 90.7392 38.9577 88.3778 49.059C87.1656 54.2311 88.0959 59.5215 90.9279 63.5678C92.6626 66.0437 94.9936 67.9312 97.711 69.0968C99.0718 69.6804 100.531 70.0845 102.062 70.2926C110.728 71.4579 118.15 66.7114 122.593 57.6669C123.119 56.5948 124.65 56.5572 125.254 57.5833L127.178 60.8396C129.759 65.357 133.411 68.8387 138.527 69.4849C147.725 70.6418 154.871 64.8459 157.832 55.7254L157.836 55.7173L157.835 55.7074Z" fill="url(#paint1_linear_4730_3156)"/>
<path d="M29.873 92.685H35.6072C36.7125 92.685 37.5704 92.9613 38.1806 93.514C38.8024 94.0667 39.1133 94.8727 39.1133 95.932C39.1133 96.4962 38.9751 97.0086 38.6988 97.4692C38.434 97.9183 38.077 98.2637 37.6279 98.5055C38.883 98.92 39.5105 99.8469 39.5105 101.286C39.5105 102 39.3493 102.622 39.0269 103.152C38.7045 103.67 38.267 104.067 37.7143 104.343C37.1731 104.62 36.5686 104.758 35.9008 104.758H29.873V92.685ZM35.2617 97.711C35.7569 97.711 36.1541 97.5786 36.4535 97.3138C36.7528 97.0374 36.9025 96.6229 36.9025 96.0702C36.9025 95.4369 36.7528 95.0051 36.4535 94.7748C36.1656 94.533 35.7338 94.4121 35.1581 94.4121H32.0492V97.711H35.2617ZM35.3999 103.031C36.0102 103.031 36.4765 102.904 36.7989 102.651C37.1328 102.397 37.2998 101.948 37.2998 101.303C37.2998 100.659 37.1271 100.192 36.7816 99.9045C36.4362 99.6166 35.9353 99.4727 35.279 99.4727H32.0492V103.031H35.3999ZM45.4293 105.017C44.462 105.017 43.61 104.844 42.8731 104.499C42.1477 104.142 41.5834 103.635 41.1804 102.979C40.7774 102.311 40.5759 101.522 40.5759 100.613C40.5759 99.726 40.7717 98.9546 41.1632 98.2982C41.5662 97.6304 42.1361 97.118 42.8731 96.7611C43.61 96.3926 44.462 96.2084 45.4293 96.2084C46.3965 96.2084 47.2428 96.3926 47.9682 96.7611C48.7051 97.118 49.2751 97.6304 49.6781 98.2982C50.0811 98.9546 50.2826 99.726 50.2826 100.613C50.2826 101.522 50.0811 102.311 49.6781 102.979C49.2751 103.635 48.7051 104.142 47.9682 104.499C47.2428 104.844 46.3965 105.017 45.4293 105.017ZM45.4293 103.307C46.2237 103.307 46.857 103.059 47.3291 102.564C47.8012 102.058 48.0373 101.407 48.0373 100.613C48.0373 99.7721 47.8012 99.1158 47.3291 98.6437C46.8685 98.1601 46.2353 97.9183 45.4293 97.9183C44.6232 97.9183 43.9842 98.1601 43.5121 98.6437C43.0515 99.1158 42.8212 99.7721 42.8212 100.613C42.8212 101.407 43.0573 102.058 43.5294 102.564C44.0015 103.059 44.6348 103.307 45.4293 103.307ZM51.683 96.4675H53.7901V97.7974C54.124 97.3483 54.5961 97.0144 55.2064 96.7956C55.8282 96.5768 56.5363 96.4675 57.3308 96.4675V98.1255C56.4903 98.1255 55.7591 98.2579 55.1373 98.5228C54.5271 98.7761 54.101 99.1791 53.8592 99.7318V104.758H51.683V96.4675ZM58.3123 96.4675H60.4194V97.7974C60.7533 97.3483 61.2254 97.0144 61.8357 96.7956C62.4574 96.5768 63.1656 96.4675 63.9601 96.4675V98.1255C63.1195 98.1255 62.3884 98.2579 61.7666 98.5228C61.1563 98.7761 60.7303 99.1791 60.4885 99.7318V104.758H58.3123V96.4675ZM69.2808 105.017C68.3135 105.017 67.4615 104.844 66.7246 104.499C65.9991 104.142 65.4349 103.635 65.0319 102.979C64.6289 102.311 64.4274 101.522 64.4274 100.613C64.4274 99.726 64.6232 98.9546 65.0147 98.2982C65.4177 97.6304 65.9876 97.118 66.7246 96.7611C67.4615 96.3926 68.3135 96.2084 69.2808 96.2084C70.248 96.2084 71.0943 96.3926 71.8197 96.7611C72.5566 97.118 73.1266 97.6304 73.5296 98.2982C73.9326 98.9546 74.1341 99.726 74.1341 100.613C74.1341 101.522 73.9326 102.311 73.5296 102.979C73.1266 103.635 72.5566 104.142 71.8197 104.499C71.0943 104.844 70.248 105.017 69.2808 105.017ZM69.2808 103.307C70.0752 103.307 70.7085 103.059 71.1806 102.564C71.6527 102.058 71.8888 101.407 71.8888 100.613C71.8888 99.7721 71.6527 99.1158 71.1806 98.6437C70.72 98.1601 70.0868 97.9183 69.2808 97.9183C68.4747 97.9183 67.8357 98.1601 67.3636 98.6437C66.903 99.1158 66.6727 99.7721 66.6727 100.613C66.6727 101.407 66.9088 102.058 67.3809 102.564C67.853 103.059 68.4863 103.307 69.2808 103.307ZM74.059 96.4675H76.2352L77.9278 102.081L79.5859 96.4675H81.4858L83.1438 102.081L84.8365 96.4675H87.0127L84.301 104.758H82.2975L80.5358 99.1273L78.7741 104.758H76.7706L74.059 96.4675ZM98.3323 105.017C97.0427 105.017 95.9949 104.729 95.1889 104.153C94.3829 103.578 93.9799 102.772 93.9799 101.735C93.9799 100.964 94.1872 100.313 94.6017 99.7836C95.0277 99.2424 95.7071 98.6955 96.6397 98.1428C96.0986 97.6362 95.6898 97.1641 95.4135 96.7265C95.1486 96.289 95.0162 95.8054 95.0162 95.2757C95.0162 94.723 95.1544 94.2337 95.4307 93.8076C95.7186 93.3701 96.1158 93.0304 96.6225 92.7886C97.1291 92.5468 97.7221 92.4259 98.4014 92.4259C99.0578 92.4259 99.6335 92.5526 100.129 92.8059C100.635 93.0477 101.027 93.3874 101.303 93.8249C101.579 94.2509 101.718 94.7345 101.718 95.2757C101.718 95.932 101.551 96.502 101.217 96.9856C100.894 97.4577 100.347 97.9413 99.5759 98.4364L102.529 101.217C102.84 100.687 102.996 99.7836 102.996 98.5055H104.775C104.775 99.4036 104.706 100.152 104.567 100.751C104.441 101.35 104.21 101.931 103.877 102.495L106.277 104.758H103.721L102.598 103.722C102.069 104.171 101.447 104.499 100.733 104.706C100.031 104.913 99.2305 105.017 98.3323 105.017ZM98.2633 97.4347C98.8505 97.0892 99.2765 96.7611 99.5414 96.4502C99.8062 96.1393 99.9386 95.7939 99.9386 95.4139C99.9386 94.9763 99.8004 94.6194 99.5241 94.343C99.2477 94.0667 98.8735 93.9285 98.4014 93.9285C97.9409 93.9285 97.5724 94.0667 97.2961 94.343C97.0197 94.6194 96.8815 94.9763 96.8815 95.4139C96.8815 95.7363 96.9852 96.0414 97.1924 96.3293C97.4112 96.6056 97.7681 96.9741 98.2633 97.4347ZM98.3496 103.566C98.9714 103.566 99.5414 103.474 100.06 103.29C100.578 103.105 101.009 102.852 101.355 102.53L98.0387 99.3173C97.3479 99.6397 96.8355 99.9966 96.5016 100.388C96.1792 100.78 96.018 101.229 96.018 101.735C96.018 102.334 96.2425 102.789 96.6915 103.1C97.1521 103.411 97.7048 103.566 98.3496 103.566ZM118.809 105.017C118.106 105.017 117.502 104.925 116.995 104.741C116.488 104.545 115.999 104.228 115.527 103.791V104.758H113.42V91.9941H115.596V97.2792C115.987 96.9223 116.46 96.6574 117.012 96.4847C117.576 96.3005 118.175 96.2084 118.809 96.2084C119.649 96.2084 120.397 96.3984 121.054 96.7783C121.722 97.1468 122.24 97.6649 122.608 98.3328C122.988 99.0006 123.178 99.7663 123.178 100.63C123.178 101.505 122.988 102.276 122.608 102.944C122.24 103.601 121.722 104.113 121.054 104.481C120.397 104.838 119.649 105.017 118.809 105.017ZM118.273 103.307C119.056 103.307 119.701 103.059 120.208 102.564C120.714 102.069 120.967 101.424 120.967 100.63C120.967 99.8354 120.714 99.1848 120.208 98.6782C119.701 98.1716 119.056 97.9183 118.273 97.9183C117.651 97.9183 117.093 98.091 116.598 98.4364C116.114 98.7703 115.78 99.2194 115.596 99.7836V101.459C115.792 102.023 116.131 102.472 116.615 102.806C117.099 103.14 117.651 103.307 118.273 103.307ZM127.187 105.017C126.197 105.017 125.385 104.758 124.752 104.24C124.119 103.71 123.802 103.002 123.802 102.115C123.802 101.194 124.102 100.474 124.7 99.9563C125.299 99.4382 126.14 99.1791 127.222 99.1791C128.27 99.1791 129.174 99.3921 129.934 99.8181V99.5936C129.934 99.0064 129.749 98.5803 129.381 98.3155C129.024 98.0507 128.443 97.9183 127.637 97.9183C127.13 97.9183 126.629 97.9701 126.134 98.0737C125.639 98.1658 125.201 98.2982 124.821 98.471V96.7611C125.167 96.5999 125.627 96.4675 126.203 96.3638C126.79 96.2602 127.354 96.2084 127.896 96.2084C129.335 96.2084 130.4 96.5193 131.091 97.141C131.782 97.7513 132.127 98.6034 132.127 99.6972V104.758H130.072V103.946C129.715 104.291 129.306 104.556 128.846 104.741C128.396 104.925 127.844 105.017 127.187 105.017ZM127.723 103.428C128.206 103.428 128.644 103.336 129.036 103.152C129.427 102.956 129.726 102.691 129.934 102.357V101.442C129.3 100.993 128.575 100.768 127.757 100.768C126.594 100.768 126.013 101.217 126.013 102.115C126.013 102.553 126.157 102.881 126.445 103.1C126.744 103.319 127.17 103.428 127.723 103.428ZM137.967 105.017C136.999 105.017 136.147 104.844 135.41 104.499C134.685 104.153 134.121 103.652 133.718 102.996C133.315 102.34 133.113 101.551 133.113 100.63C133.113 99.7088 133.315 98.92 133.718 98.2637C134.132 97.5959 134.702 97.0892 135.428 96.7438C136.165 96.3869 137.022 96.2084 138.001 96.2084C139.291 96.2084 140.321 96.4617 141.093 96.9683V98.7128C140.344 98.1831 139.389 97.9183 138.226 97.9183C137.339 97.9183 136.631 98.1428 136.101 98.5919C135.583 99.0294 135.324 99.7088 135.324 100.63C135.324 101.54 135.583 102.213 136.101 102.651C136.631 103.088 137.328 103.307 138.191 103.307C139.354 103.307 140.356 103.031 141.196 102.478V104.205C140.782 104.481 140.31 104.683 139.78 104.81C139.262 104.948 138.658 105.017 137.967 105.017ZM142.601 91.9941H144.777V100.112L148.076 96.4675H150.632L146.936 100.526L151.047 104.758H148.491L144.777 100.924V104.758H142.601V91.9941Z" fill="#25416E"/>
<defs>
<linearGradient id="paint0_linear_4730_3156" x1="60.6094" y1="18.0625" x2="5.59324" y2="55.7791" gradientUnits="userSpaceOnUse">
<stop stop-color="#166AF6"/>
<stop offset="1" stop-color="#00C9F7"/>
</linearGradient>
<linearGradient id="paint1_linear_4730_3156" x1="140.267" y1="13.1546" x2="82.4805" y2="46.231" gradientUnits="userSpaceOnUse">
<stop stop-color="#166AF6"/>
<stop offset="1" stop-color="#00C9F7"/>
</linearGradient>
</defs>
</svg>
