<svg width="216" height="60" viewBox="0 0 216 60" fill="none" xmlns="http://www.w3.org/2000/svg">
<path d="M0 30C0 13.4315 13.4315 0 30 0H186C202.569 0 216 13.4315 216 30C216 46.5685 202.569 60 186 60H30C13.4315 60 0 46.5685 0 30Z" fill="#25416E"/>
<path d="M78.2322 15.4176C78.2322 16.6098 77.9342 17.6529 77.1891 18.398C76.2949 19.2922 75.2518 19.7392 73.9106 19.7392C72.5694 19.7392 71.5263 19.2922 70.6322 18.398C69.7381 17.5039 69.291 16.4608 69.291 15.1196C69.291 13.7784 69.7381 12.7353 70.6322 11.8412C71.5263 10.9471 72.5694 10.5 73.9106 10.5C74.5067 10.5 75.1028 10.649 75.6989 10.9471C76.2949 11.2451 76.742 11.5431 77.04 11.9902L76.2949 12.7353C75.6989 11.9902 74.9538 11.6922 73.9106 11.6922C73.0165 11.6922 72.1224 11.9902 71.5263 12.7353C70.7812 13.3314 70.4832 14.2255 70.4832 15.2686C70.4832 16.3118 70.7812 17.2059 71.5263 17.802C72.2714 18.398 73.0165 18.8451 73.9106 18.8451C74.9538 18.8451 75.6989 18.5471 76.444 17.802C76.891 17.3549 77.1891 16.7588 77.1891 16.0137H73.9106V14.8216H78.2322V15.4176ZM85.0871 11.6922H81.0636V14.5235H84.7891V15.5667H81.0636V18.398H85.0871V19.5902H79.8714V10.649H85.0871V11.6922ZM90.0047 19.5902H88.8126V11.6922H86.2792V10.649H92.5381V11.6922H90.0047V19.5902ZM96.8596 19.5902V10.649H98.0518V19.5902H96.8596ZM103.118 19.5902H101.926V11.6922H99.393V10.649H105.503V11.6922H102.969V19.5902H103.118ZM117.275 18.398C116.381 19.2922 115.338 19.7392 113.997 19.7392C112.656 19.7392 111.613 19.2922 110.718 18.398C109.824 17.5039 109.377 16.4608 109.377 15.1196C109.377 13.7784 109.824 12.7353 110.718 11.8412C111.613 10.9471 112.656 10.5 113.997 10.5C115.338 10.5 116.381 10.9471 117.275 11.8412C118.169 12.7353 118.617 13.7784 118.617 15.1196C118.617 16.4608 118.169 17.5039 117.275 18.398ZM111.613 17.6529C112.209 18.249 113.103 18.6961 113.997 18.6961C114.891 18.6961 115.785 18.398 116.381 17.6529C116.977 17.0569 117.424 16.1627 117.424 15.1196C117.424 14.0765 117.126 13.1824 116.381 12.5863C115.785 11.9902 114.891 11.5431 113.997 11.5431C113.103 11.5431 112.209 11.8412 111.613 12.5863C111.017 13.1824 110.569 14.0765 110.569 15.1196C110.569 16.1627 110.867 17.0569 111.613 17.6529ZM120.256 19.5902V10.649H121.597L125.918 17.6529V10.649H127.111V19.5902H125.918L121.299 12.2882V19.5902H120.256Z" fill="white" stroke="white" stroke-width="0.371035" stroke-miterlimit="10"/>
<path d="M109.077 32.707C105.501 32.707 102.669 35.3894 102.669 39.1149C102.669 42.6914 105.501 45.5227 109.077 45.5227C112.654 45.5227 115.485 42.8404 115.485 39.1149C115.485 35.2404 112.654 32.707 109.077 32.707ZM109.077 42.8404C107.14 42.8404 105.501 41.2012 105.501 38.9659C105.501 36.7306 107.14 35.0914 109.077 35.0914C111.014 35.0914 112.654 36.5816 112.654 38.9659C112.654 41.2012 111.014 42.8404 109.077 42.8404ZM95.2183 32.707C91.6418 32.707 88.8104 35.3894 88.8104 39.1149C88.8104 42.6914 91.6418 45.5227 95.2183 45.5227C98.7947 45.5227 101.626 42.8404 101.626 39.1149C101.626 35.2404 98.7947 32.707 95.2183 32.707ZM95.2183 42.8404C93.281 42.8404 91.6418 41.2012 91.6418 38.9659C91.6418 36.7306 93.281 35.0914 95.2183 35.0914C97.1555 35.0914 98.7947 36.5816 98.7947 38.9659C98.7947 41.2012 97.1555 42.8404 95.2183 42.8404ZM78.6771 34.6443V37.3267H85.0849C84.9359 38.8169 84.3398 40.009 83.5947 40.7541C82.7006 41.6482 81.2104 42.6914 78.6771 42.6914C74.6536 42.6914 71.6732 39.562 71.6732 35.5384C71.6732 31.5149 74.8026 28.3855 78.6771 28.3855C80.7634 28.3855 82.4026 29.2796 83.5947 30.3227L85.532 28.3855C83.8928 26.8953 81.8065 25.7031 78.8261 25.7031C73.4614 25.7031 68.8418 30.1737 68.8418 35.5384C68.8418 40.9031 73.4614 45.3737 78.8261 45.3737C81.8065 45.3737 83.8928 44.4796 85.681 42.5423C87.4693 40.7541 88.0653 38.2208 88.0653 36.2835C88.0653 35.6874 88.0653 35.0914 87.9163 34.6443H78.6771ZM146.332 36.7306C145.736 35.2404 144.246 32.707 140.967 32.707C137.689 32.707 135.007 35.2404 135.007 39.1149C135.007 42.6914 137.689 45.5227 141.265 45.5227C144.097 45.5227 145.885 43.7345 146.481 42.6914L144.395 41.2012C143.65 42.2443 142.756 42.9894 141.265 42.9894C139.775 42.9894 138.881 42.3933 138.136 41.0521L146.63 37.4757L146.332 36.7306ZM137.689 38.8169C137.689 36.4325 139.626 35.0914 140.967 35.0914C142.01 35.0914 143.054 35.6874 143.352 36.4325L137.689 38.8169ZM130.685 44.9267H133.516V26.2992H130.685V44.9267ZM126.214 34.0482C125.469 33.3031 124.277 32.558 122.787 32.558C119.657 32.558 116.677 35.3894 116.677 38.9659C116.677 42.5423 119.508 45.2247 122.787 45.2247C124.277 45.2247 125.469 44.4796 126.065 43.7345H126.214V44.6286C126.214 47.0129 124.873 48.3541 122.787 48.3541C121.148 48.3541 119.956 47.1619 119.657 46.1188L117.273 47.162C118.018 48.8012 119.807 50.8874 122.936 50.8874C126.214 50.8874 128.897 48.9502 128.897 44.3306V33.0051H126.214V34.0482ZM122.936 42.8404C120.999 42.8404 119.359 41.2012 119.359 38.9659C119.359 36.7306 120.999 35.0914 122.936 35.0914C124.873 35.0914 126.363 36.7306 126.363 38.9659C126.363 41.2012 124.873 42.8404 122.936 42.8404ZM159.297 26.2992H152.591V44.9267H155.422V37.9227H159.297C162.426 37.9227 165.407 35.6874 165.407 32.111C165.407 28.5345 162.426 26.2992 159.297 26.2992ZM159.446 35.2404H155.422V28.8325H159.446C161.532 28.8325 162.724 30.6208 162.724 31.9619C162.575 33.6012 161.383 35.2404 159.446 35.2404ZM176.583 32.558C174.497 32.558 172.41 33.4521 171.665 35.3894L174.199 36.4325C174.795 35.3894 175.689 35.0914 176.732 35.0914C178.222 35.0914 179.563 35.9855 179.712 37.4757V37.6247C179.265 37.3267 178.073 36.8796 176.881 36.8796C174.199 36.8796 171.516 38.3698 171.516 41.0521C171.516 43.5855 173.752 45.2247 176.136 45.2247C178.073 45.2247 178.967 44.3306 179.712 43.4365H179.861V44.9267H182.544V37.7737C182.246 34.4953 179.712 32.558 176.583 32.558ZM176.285 42.8404C175.391 42.8404 174.05 42.3933 174.05 41.2012C174.05 39.711 175.689 39.2639 177.03 39.2639C178.222 39.2639 178.818 39.5619 179.563 39.86C179.265 41.6482 177.775 42.8404 176.285 42.8404ZM191.932 33.0051L188.803 41.0521H188.654L185.375 33.0051H182.395L187.312 44.3306L184.481 50.5894H187.312L194.912 33.0051H191.932ZM166.897 44.9267H169.728V26.2992H166.897V44.9267Z" fill="white"/>
<path d="M23.0961 11.3984C22.649 11.8455 22.5 12.5906 22.5 13.4847V46.418C22.5 47.3122 22.798 48.0573 23.2451 48.5043L23.3941 48.6533L41.8725 30.1749V29.8769L23.0961 11.3984Z" fill="url(#paint0_linear_5238_11457)"/>
<path d="M47.8325 36.4245L41.7227 30.3147V29.8676L47.8325 23.7578L47.9815 23.9068L55.2834 28.0794C57.3697 29.2715 57.3697 31.2088 55.2834 32.401L47.8325 36.4245Z" fill="url(#paint1_linear_5238_11457)"/>
<path d="M47.982 36.2823L41.7232 30.0234L23.0957 48.6509C23.8408 49.396 24.8839 49.396 26.2251 48.7999L47.982 36.2823Z" fill="url(#paint2_linear_5238_11457)"/>
<path d="M47.982 23.7569L26.2251 11.3883C24.8839 10.6432 23.8408 10.7922 23.0957 11.5373L41.7232 30.0158L47.982 23.7569Z" fill="url(#paint3_linear_5238_11457)"/>
<path opacity="0.2" d="M47.833 36.1328L26.2251 48.3524C25.033 49.0975 23.9898 48.9485 23.2447 48.3524L23.0957 48.5014L23.2447 48.6505C23.9898 49.2465 25.033 49.3956 26.2251 48.6505L47.833 36.1328Z" fill="black"/>
<path opacity="0.12" d="M23.0961 48.3528C22.649 47.9058 22.5 47.1607 22.5 46.2666V46.4156C22.5 47.3097 22.798 48.0548 23.2451 48.5019V48.3528H23.0961ZM55.2843 31.9607L47.8333 36.1332L47.9824 36.2823L55.2843 32.1097C56.3275 31.5136 56.7745 30.7685 56.7745 30.0234C56.7745 30.7685 56.1784 31.3646 55.2843 31.9607Z" fill="black"/>
<path opacity="0.25" d="M26.2255 11.542L55.2843 28.0831C56.1784 28.6792 56.7745 29.2753 56.7745 30.0204C56.7745 29.2753 56.3275 28.5302 55.2843 27.9341L26.2255 11.3929C24.1392 10.2008 22.5 11.0949 22.5 13.4792V13.6282C22.5 11.3929 24.1392 10.3498 26.2255 11.542Z" fill="white"/>
<defs>
<linearGradient id="paint0_linear_5238_11457" x1="40.0843" y1="13.2016" x2="15.0744" y2="38.21" gradientUnits="userSpaceOnUse">
<stop stop-color="#00A0FF"/>
<stop offset="0.007" stop-color="#00A1FF"/>
<stop offset="0.26" stop-color="#00BEFF"/>
<stop offset="0.512" stop-color="#00D2FF"/>
<stop offset="0.76" stop-color="#00DFFF"/>
<stop offset="1" stop-color="#00E3FF"/>
</linearGradient>
<linearGradient id="paint1_linear_5238_11457" x1="58.0165" y1="30.0181" x2="21.9582" y2="30.0181" gradientUnits="userSpaceOnUse">
<stop stop-color="#FFE000"/>
<stop offset="0.409" stop-color="#FFBD00"/>
<stop offset="0.775" stop-color="#FFA500"/>
<stop offset="1" stop-color="#FF9C00"/>
</linearGradient>
<linearGradient id="paint2_linear_5238_11457" x1="44.5948" y1="33.4449" x2="10.6809" y2="67.3588" gradientUnits="userSpaceOnUse">
<stop stop-color="#FF3A44"/>
<stop offset="1" stop-color="#C31162"/>
</linearGradient>
<linearGradient id="paint3_linear_5238_11457" x1="18.4716" y1="0.474107" x2="33.6165" y2="15.619" gradientUnits="userSpaceOnUse">
<stop stop-color="#32A071"/>
<stop offset="0.069" stop-color="#2DA771"/>
<stop offset="0.476" stop-color="#15CF74"/>
<stop offset="0.801" stop-color="#06E775"/>
<stop offset="1" stop-color="#00F076"/>
</linearGradient>
</defs>
</svg>
